<svg width="80" height="80" viewBox="0 0 80 80" fill="none" xmlns="http://www.w3.org/2000/svg">
<mask id="path-1-inside-1_1165_49" fill="white">
<path d="M40 0C62.0914 0 80 17.9086 80 40C80 62.0914 62.0914 80 40 80C17.9086 80 0 62.0914 0 40C0 17.9086 17.9086 0 40 0ZM34.6621 49.4248L24.082 39.6025L20 44L34.9775 57.9033L60.2607 30.668L55.8633 26.5859L34.6621 49.4248Z"/>
</mask>
<path d="M40 0C62.0914 0 80 17.9086 80 40C80 62.0914 62.0914 80 40 80C17.9086 80 0 62.0914 0 40C0 17.9086 17.9086 0 40 0ZM34.6621 49.4248L24.082 39.6025L20 44L34.9775 57.9033L60.2607 30.668L55.8633 26.5859L34.6621 49.4248Z" fill="white" fill-opacity="0.1"/>
<path d="M34.6621 49.4248L33.9817 50.1577L34.7146 50.8381L35.395 50.1051L34.6621 49.4248ZM24.082 39.6025L24.7624 38.8697L24.0295 38.1893L23.3491 38.9222L24.082 39.6025ZM20 44L19.2671 43.3197L18.5868 44.0526L19.3197 44.7329L20 44ZM34.9775 57.9033L34.2972 58.6362L35.0301 59.3165L35.7104 58.5837L34.9775 57.9033ZM60.2607 30.668L60.9936 31.3483L61.674 30.6154L60.9411 29.9351L60.2607 30.668ZM55.8633 26.5859L56.5436 25.853L55.8107 25.1727L55.1304 25.9056L55.8633 26.5859ZM40 0V1C61.5391 1 79 18.4609 79 40H80H81C81 17.3563 62.6437 -1 40 -1V0ZM80 40H79C79 61.5391 61.5391 79 40 79V80V81C62.6437 81 81 62.6437 81 40H80ZM40 80V79C18.4609 79 1 61.5391 1 40H0H-1C-1 62.6437 17.3563 81 40 81V80ZM0 40H1C1 18.4609 18.4609 1 40 1V0V-1C17.3563 -1 -1 17.3563 -1 40H0ZM34.6621 49.4248L35.3425 48.6919L24.7624 38.8697L24.082 39.6025L23.4017 40.3354L33.9817 50.1577L34.6621 49.4248ZM24.082 39.6025L23.3491 38.9222L19.2671 43.3197L20 44L20.7329 44.6803L24.8149 40.2829L24.082 39.6025ZM20 44L19.3197 44.7329L34.2972 58.6362L34.9775 57.9033L35.6579 57.1704L20.6803 43.2671L20 44ZM34.9775 57.9033L35.7104 58.5837L60.9936 31.3483L60.2607 30.668L59.5279 29.9876L34.2447 57.223L34.9775 57.9033ZM60.2607 30.668L60.9411 29.9351L56.5436 25.853L55.8633 26.5859L55.1829 27.3188L59.5804 31.4009L60.2607 30.668ZM55.8633 26.5859L55.1304 25.9056L33.9292 48.7445L34.6621 49.4248L35.395 50.1051L56.5962 27.2663L55.8633 26.5859Z" fill="white" mask="url(#path-1-inside-1_1165_49)"/>
</svg>
